{
    "asset" : {
        "generator" : "Khronos glTF Blender I/O v1.6.16",
        "version" : "2.0"
    },
    "scene" : 0,
    "scenes" : [
        {
            "name" : "Scene",
            "nodes" : [
                0
            ]
        }
    ],
    "nodes" : [
        {
            "mesh" : 0,
            "name" : "Torus.003",
            "rotation" : [
                0.036046531051397324,
                0.017733795568346977,
                0.6933306455612183,
                0.7194989323616028
            ],
            "scale" : [
                -0.06374689936637878,
                -0.06571093946695328,
                -0.06580720841884613
            ],
            "translation" : [
                0,
                3.4814534187316895,
                0
            ]
        }
    ],
    "materials" : [
        {
            "doubleSided" : true,
            "name" : "Material.002",
            "pbrMetallicRoughness" : {
                "baseColorFactor" : [
                    0,
                    0.09908322244882584,
                    0.3831705152988434,
                    1
                ],
                "metallicFactor" : 0,
                "roughnessFactor" : 0.5
            }
        },
        {
            "doubleSided" : true,
            "name" : "Material.001",
            "pbrMetallicRoughness" : {
                "baseColorTexture" : {
                    "index" : 0
                },
                "metallicFactor" : 0,
                "roughnessFactor" : 0.5
            }
        }
    ],
    "meshes" : [
        {
            "name" : "Torus.003",
            "primitives" : [
                {
                    "attributes" : {
                        "POSITION" : 0,
                        "NORMAL" : 1,
                        "TEXCOORD_0" : 2
                    },
                    "indices" : 3,
                    "material" : 0
                },
                {
                    "attributes" : {
                        "POSITION" : 4,
                        "NORMAL" : 5,
                        "TEXCOORD_0" : 6
                    },
                    "indices" : 7,
                    "material" : 1
                }
            ]
        }
    ],
    "textures" : [
        {
            "sampler" : 0,
            "source" : 0
        }
    ],
    "images" : [
        {
            "mimeType" : "image/jpeg",
            "name" : "phoneConcept",
            "uri" : "phoneConcept.jpg"
        }
    ],
    "accessors" : [
        {
            "bufferView" : 0,
            "componentType" : 5126,
            "count" : 18020,
            "max" : [
                123.8863525390625,
                13.220320701599121,
                47.16853713989258
            ],
            "min" : [
                -40.281654357910156,
                -12.678689002990723,
                -39.137760162353516
            ],
            "type" : "VEC3"
        },
        {
            "bufferView" : 1,
            "componentType" : 5126,
            "count" : 18020,
            "type" : "VEC3"
        },
        {
            "bufferView" : 2,
            "componentType" : 5126,
            "count" : 18020,
            "type" : "VEC2"
        },
        {
            "bufferView" : 3,
            "componentType" : 5123,
            "count" : 26778,
            "type" : "SCALAR"
        },
        {
            "bufferView" : 4,
            "componentType" : 5126,
            "count" : 28,
            "max" : [
                116.21360778808594,
                8.657913208007812,
                40.506195068359375
            ],
            "min" : [
                -35.878604888916016,
                2.813030242919922,
                -34.69266128540039
            ],
            "type" : "VEC3"
        },
        {
            "bufferView" : 5,
            "componentType" : 5126,
            "count" : 28,
            "type" : "VEC3"
        },
        {
            "bufferView" : 6,
            "componentType" : 5126,
            "count" : 28,
            "type" : "VEC2"
        },
        {
            "bufferView" : 7,
            "componentType" : 5123,
            "count" : 78,
            "type" : "SCALAR"
        }
    ],
    "bufferViews" : [
        {
            "buffer" : 0,
            "byteLength" : 216240,
            "byteOffset" : 0
        },
        {
            "buffer" : 0,
            "byteLength" : 216240,
            "byteOffset" : 216240
        },
        {
            "buffer" : 0,
            "byteLength" : 144160,
            "byteOffset" : 432480
        },
        {
            "buffer" : 0,
            "byteLength" : 53556,
            "byteOffset" : 576640
        },
        {
            "buffer" : 0,
            "byteLength" : 336,
            "byteOffset" : 630196
        },
        {
            "buffer" : 0,
            "byteLength" : 336,
            "byteOffset" : 630532
        },
        {
            "buffer" : 0,
            "byteLength" : 224,
            "byteOffset" : 630868
        },
        {
            "buffer" : 0,
            "byteLength" : 156,
            "byteOffset" : 631092
        }
    ],
    "samplers" : [
        {
            "magFilter" : 9729,
            "minFilter" : 9987
        }
    ],
    "buffers" : [
        {
            "byteLength" : 631248,
            "uri" : "CellPhone_IP6.bin"
        }
    ]
}
